<?xml version="1.0" encoding="UTF-8"?>
<svg xmlns="http://www.w3.org/2000/svg" xmlns:xlink="http://www.w3.org/1999/xlink" width="800px" height="800px" viewBox="0 0 75 75" version="1.1">
<g id="surface1">
<path style=" stroke:none;fill-rule:nonzero;fill:rgb(7.058824%,53.333333%,28.627451%);fill-opacity:1;" d="M 31.050781 27.050781 C 29.523438 28.574219 32.199219 32.988281 35.199219 33.875 L 36.75 34.351562 L 36.75 36.773438 C 36.75 39.300781 37.050781 39.9375 37.914062 39.226562 C 38.414062 38.800781 38.375 33.023438 37.851562 31.261719 C 37.023438 28.449219 32.460938 25.636719 31.050781 27.050781 Z M 33.949219 28.851562 C 35.375 29.601562 37.226562 32.4375 36.460938 32.710938 C 35.9375 32.898438 33.851562 31.5625 33.210938 30.613281 C 31.875 28.648438 32.1875 27.925781 33.949219 28.851562 Z M 33.949219 28.851562 "/>
<path style=" stroke:none;fill-rule:nonzero;fill:rgb(7.058824%,53.333333%,28.627451%);fill-opacity:1;" d="M 34.125 35.136719 C 27.113281 38.824219 31.6875 49.875 39.3125 47.648438 C 45.125 45.960938 45.914062 37.238281 40.460938 34.988281 C 38.710938 34.261719 38.460938 35.585938 40.148438 36.648438 C 44.710938 39.523438 42.675781 46.324219 37.25 46.289062 C 32.125 46.25 30.386719 39.898438 34.625 36.699219 C 36.460938 35.3125 36.074219 34.113281 34.125 35.136719 Z M 34.125 35.136719 "/>
</g>
</svg>
