<svg id="SvgjsSvg1006" width="288" height="288" xmlns="http://www.w3.org/2000/svg" version="1.1" xmlnsXlink="http://www.w3.org/1999/xlink" xmlnsSvgjs="http://svgjs.com/svgjs"><defs id="SvgjsDefs1007"></defs><g id="SvgjsG1008"><svg xmlns="http://www.w3.org/2000/svg" width="288" height="288" version="1.0" viewBox="0 0 512 512"><path d="M2360 4595 c-248 -42 -475 -159 -655 -340 -205 -204 -325 -459 -356-750 -39 -371 137 -878 544 -1565 92 -155 303 -479 322 -495 7 -5 59 -75 115
-155 134 -189 219 -300 228 -300 8 1 88 107 229 305 52 72 102 139 112 150 10
11 54 74 98 140 403 604 671 1157 753 1555 29 136 31 346 7 472 -100 510 -491
895 -997 982 -110 19 -293 19 -400 1z m270 -735 c192 -30 350 -180 396 -376
73 -313 -219 -620 -538 -566 -272 47 -454 309 -394 566 51 216 231 368 456
385 8 0 44 -4 80 -9z" transform="matrix(.1 0 0 -.1 0 512)" fill="#2a945b" class="color000 svgShape"></path></svg></g></svg>